<svg width="595" height="350" viewBox="0 0 595 350" fill="none" xmlns="http://www.w3.org/2000/svg">
<g filter="url(#filter0_d_823_95)">
<path d="M0 3H193.562L309 284H0V3Z" fill="#171515"/>
<path d="M0 1.5H-1.5V3V284V285.5H0H309H311.238L310.387 283.43L194.95 2.43001L194.568 1.5H193.562H0Z" stroke="white" stroke-width="3"/>
</g>
<path d="M296 129H595V350L388.5 350L296 129Z" fill="url(#paint0_linear_823_95)"/>
<g filter="url(#filter1_d_823_95)">
<path d="M0 39H313.5L395 227H0V39Z" fill="url(#paint1_linear_823_95)"/>
</g>
<path d="M361.5 285.5L336 227L395 227L361.5 285.5Z" fill="url(#paint2_linear_823_95)"/>
<defs>
<filter id="filter0_d_823_95" x="-3" y="0" width="318.477" height="289" filterUnits="userSpaceOnUse" color-interpolation-filters="sRGB">
<feFlood flood-opacity="0" result="BackgroundImageFix"/>
<feColorMatrix in="SourceAlpha" type="matrix" values="0 0 0 0 0 0 0 0 0 0 0 0 0 0 0 0 0 0 127 0" result="hardAlpha"/>
<feOffset dx="1" dy="1"/>
<feGaussianBlur stdDeviation="0.5"/>
<feComposite in2="hardAlpha" operator="out"/>
<feColorMatrix type="matrix" values="0 0 0 0 0 0 0 0 0 0 0 0 0 0 0 0 0 0 0.25 0"/>
<feBlend mode="normal" in2="BackgroundImageFix" result="effect1_dropShadow_823_95"/>
<feBlend mode="normal" in="SourceGraphic" in2="effect1_dropShadow_823_95" result="shape"/>
</filter>
<filter id="filter1_d_823_95" x="-4" y="39" width="403" height="196" filterUnits="userSpaceOnUse" color-interpolation-filters="sRGB">
<feFlood flood-opacity="0" result="BackgroundImageFix"/>
<feColorMatrix in="SourceAlpha" type="matrix" values="0 0 0 0 0 0 0 0 0 0 0 0 0 0 0 0 0 0 127 0" result="hardAlpha"/>
<feOffset dy="4"/>
<feGaussianBlur stdDeviation="2"/>
<feComposite in2="hardAlpha" operator="out"/>
<feColorMatrix type="matrix" values="0 0 0 0 0 0 0 0 0 0 0 0 0 0 0 0 0 0 0.25 0"/>
<feBlend mode="normal" in2="BackgroundImageFix" result="effect1_dropShadow_823_95"/>
<feBlend mode="normal" in="SourceGraphic" in2="effect1_dropShadow_823_95" result="shape"/>
</filter>
<linearGradient id="paint0_linear_823_95" x1="296" y1="213.5" x2="602" y2="219" gradientUnits="userSpaceOnUse">
<stop stop-color="#F35868"/>
<stop offset="1" stop-color="#C40014"/>
</linearGradient>
<linearGradient id="paint1_linear_823_95" x1="358.5" y1="142" x2="3.6149e-07" y2="142" gradientUnits="userSpaceOnUse">
<stop stop-color="#C40014"/>
<stop offset="1" stop-color="#FF6D7C"/>
</linearGradient>
<linearGradient id="paint2_linear_823_95" x1="357.5" y1="185.5" x2="365.5" y2="285.5" gradientUnits="userSpaceOnUse">
<stop stop-color="#E2384A"/>
<stop offset="1" stop-color="#C40014"/>
</linearGradient>
</defs>
</svg>
