<svg width="28" height="28" viewBox="0 0 28 28" fill="none" xmlns="http://www.w3.org/2000/svg">
<path d="M25 14.6484C25 17.1207 24.2669 19.5375 22.8934 21.5931C21.5199 23.6487 19.5676 25.2508 17.2835 26.1969C14.9995 27.143 12.4861 27.3906 10.0614 26.9083C7.63661 26.4259 5.40932 25.2354 3.66117 23.4873C1.91301 21.7391 0.722499 19.5118 0.240184 17.0871C-0.242131 14.6623 0.00541045 12.149 0.951506 9.86489C1.8976 7.58082 3.49976 5.62858 5.55537 4.25507C7.61099 2.88155 10.0277 2.14844 12.5 2.14844V14.6484H25Z" fill="white"/>
<path d="M13.725 0.0751319C15.5076 0.0850274 17.2708 0.445937 18.914 1.13725C20.5571 1.82857 22.048 2.83675 23.3015 4.10424C24.555 5.37173 25.5465 6.87371 26.2196 8.52441C26.8926 10.1751 27.2339 11.9422 27.224 13.7248L13.6497 13.6495L13.725 0.0751319Z" fill="white" fill-opacity="0.5"/>
</svg>
