<svg width="20" height="20" viewBox="0 0 20 20" fill="none" xmlns="http://www.w3.org/2000/svg">
<path d="M18 10.5C18 12.1811 17.4722 13.8245 16.4832 15.2223C15.4943 16.6202 14.0887 17.7096 12.4442 18.353C10.7996 18.9963 8.99002 19.1646 7.24419 18.8367C5.49836 18.5087 3.89471 17.6992 2.63604 16.5104C1.37737 15.3217 0.520199 13.8071 0.172932 12.1583C-0.174335 10.5094 0.00389552 8.80036 0.685084 7.24719C1.36627 5.69402 2.51983 4.3665 3.99987 3.43251C5.47991 2.49852 7.21997 2 9 2V10.5H18Z" fill="#737791"/>
<path d="M9.70284 0.0530508C10.963 0.0600464 12.2095 0.315188 13.3711 0.803911C14.5327 1.29263 15.5867 2.00537 16.4729 2.90141C17.359 3.79746 18.06 4.85927 18.5358 6.02622C19.0116 7.19318 19.2529 8.44242 19.2459 9.70262L9.64957 9.64935L9.70284 0.0530508Z" fill="#C1C1C1"/>
</svg>
