<svg width="11" height="14" viewBox="0 0 11 14" fill="none" xmlns="http://www.w3.org/2000/svg">
<path d="M9.82143 6.125H9.23214V4.15625C9.23214 1.86484 7.55759 0 5.5 0C3.44241 0 1.76786 1.86484 1.76786 4.15625V6.125H1.17857C0.527902 6.125 0 6.71289 0 7.4375V12.6875C0 13.4121 0.527902 14 1.17857 14H9.82143C10.4721 14 11 13.4121 11 12.6875V7.4375C11 6.71289 10.4721 6.125 9.82143 6.125ZM7.26786 6.125H3.73214V4.15625C3.73214 3.0707 4.52522 2.1875 5.5 2.1875C6.47478 2.1875 7.26786 3.0707 7.26786 4.15625V6.125Z" fill="#A2A2A6"/>
</svg>
