<svg width="22" height="22" viewBox="0 0 22 22" fill="none" xmlns="http://www.w3.org/2000/svg">
<path fill-rule="evenodd" clip-rule="evenodd" d="M16.4441 16.8679L21.0064 11.5445C21.2243 11.296 21.3358 10.9822 21.3359 10.6668C21.336 10.451 21.2841 10.2344 21.1784 10.0374C21.1314 9.94959 21.074 9.86618 21.0064 9.78906L16.4441 4.46569C15.9649 3.90656 15.1231 3.84177 14.564 4.32097C14.0049 4.80017 13.9401 5.64189 14.4193 6.20102L17.1038 9.33335L6.77764 9.33335C6.04126 9.33335 5.44431 9.9303 5.44431 10.6667C5.44431 11.4031 6.04126 12 6.77764 12L17.104 12L14.4193 15.1325C13.9401 15.6916 14.0049 16.5334 14.564 17.0126C15.1231 17.4918 15.9649 17.427 16.4441 16.8679ZM8.0026 2.66667C8.73898 2.66667 9.33594 3.26362 9.33594 4L9.33594 6C9.33594 6.73638 9.93289 7.33333 10.6693 7.33333C11.4056 7.33333 12.0026 6.73638 12.0026 6L12.0026 4C12.0026 1.79086 10.2117 -4.86254e-07 8.0026 -5.82819e-07L4.0026 -7.57664e-07C1.79346 -8.54229e-07 0.00260345 1.79086 0.00260336 4L0.00260277 17.3333C0.00260268 19.5425 1.79346 21.3333 4.0026 21.3333L8.0026 21.3333C10.2117 21.3333 12.0026 19.5425 12.0026 17.3333L12.0026 15.3333C12.0026 14.597 11.4056 14 10.6693 14C9.93289 14 9.33594 14.597 9.33594 15.3333L9.33594 17.3333C9.33594 18.0697 8.73898 18.6667 8.0026 18.6667L4.0026 18.6667C3.26622 18.6667 2.66927 18.0697 2.66927 17.3333L2.66927 4C2.66927 3.26362 3.26622 2.66667 4.0026 2.66667L8.0026 2.66667Z" fill="#222A59"/>
</svg>
