<svg width="13" height="10" viewBox="0 0 13 10" fill="none" xmlns="http://www.w3.org/2000/svg">
<path d="M9.71035 0C10.582 0 11.4205 0.294444 12.0373 0.822778C12.6548 1.35 13 2.06111 13 2.80556V7.19444C13 8.74444 11.5245 10 9.71035 10H3.289C1.47485 10 0 8.74444 0 7.19444V2.80556C0 1.25556 1.46835 0 3.289 0H9.71035ZM10.4455 2.88889C10.309 2.88278 10.179 2.92222 10.0808 3L7.15 5C6.773 5.26722 6.23285 5.26722 5.85 5L2.925 3C2.72285 2.87222 2.44335 2.88889 2.275 3.03889C2.0995 3.18889 2.08 3.42778 2.22885 3.59444L2.314 3.66667L5.2715 5.63889C5.6355 5.88333 6.07685 6.01667 6.539 6.01667C6.99985 6.01667 7.449 5.88333 7.81235 5.63889L10.7445 3.63333L10.7965 3.58889C10.9518 3.42778 10.9518 3.19444 10.7894 3.03333C10.699 2.95056 10.5748 2.9 10.4455 2.88889Z" fill="#A2A2A6"/>
</svg>
