<svg width="5" height="18" viewBox="0 0 5 18" fill="none" xmlns="http://www.w3.org/2000/svg">
<path d="M2.5 6.3871C3.88194 6.3871 5 7.55564 5 9C5 10.4444 3.88194 11.6129 2.5 11.6129C1.11806 11.6129 0 10.4444 0 9C0 7.55564 1.11806 6.3871 2.5 6.3871ZM0 2.6129C0 4.05726 1.11806 5.22581 2.5 5.22581C3.88194 5.22581 5 4.05726 5 2.6129C5 1.16855 3.88194 0 2.5 0C1.11806 0 0 1.16855 0 2.6129ZM0 15.3871C0 16.8315 1.11806 18 2.5 18C3.88194 18 5 16.8315 5 15.3871C5 13.9427 3.88194 12.7742 2.5 12.7742C1.11806 12.7742 0 13.9427 0 15.3871Z" fill="#36383A"/>
</svg>
