<svg width="8" height="7" viewBox="0 0 8 7" fill="none" xmlns="http://www.w3.org/2000/svg">
<mask id="path-1-inside-1_112_4275" fill="white">
<path d="M6.75606 2.10844C6.95945 2.00574 7.21012 2.08681 7.28818 2.30087C7.53355 2.97368 7.56772 3.70915 7.38038 4.40722C7.15721 5.23876 6.63538 5.95887 5.91466 6.42986C5.19393 6.90085 4.3249 7.08967 3.47372 6.96021C2.62254 6.83075 1.84894 6.39209 1.30084 5.72812C0.752741 5.06415 0.468602 4.22146 0.502755 3.36116C0.536907 2.50087 0.886954 1.68335 1.48596 1.06492C2.08497 0.446489 2.89091 0.0705416 3.74967 0.00896341C4.47059 -0.0427303 5.18627 0.130165 5.8004 0.498565C5.99579 0.615773 6.0279 0.877259 5.88853 1.05751C5.74916 1.23776 5.49119 1.26766 5.29167 1.15764C4.84173 0.909524 4.32698 0.794798 3.80869 0.831962C3.15237 0.879023 2.53643 1.16634 2.07864 1.63898C1.62084 2.11162 1.35332 2.73641 1.32722 3.39389C1.30112 4.05138 1.51827 4.69541 1.93716 5.20285C2.35604 5.71029 2.94727 6.04554 3.59779 6.14448C4.24831 6.24342 4.91247 6.09911 5.46328 5.73916C6.0141 5.3792 6.41291 4.82886 6.58347 4.19334C6.71816 3.69148 6.70303 3.16432 6.54466 2.67552C6.47443 2.45877 6.55267 2.21113 6.75606 2.10844Z"/>
</mask>
<path d="M6.75606 2.10844C6.95945 2.00574 7.21012 2.08681 7.28818 2.30087C7.53355 2.97368 7.56772 3.70915 7.38038 4.40722C7.15721 5.23876 6.63538 5.95887 5.91466 6.42986C5.19393 6.90085 4.3249 7.08967 3.47372 6.96021C2.62254 6.83075 1.84894 6.39209 1.30084 5.72812C0.752741 5.06415 0.468602 4.22146 0.502755 3.36116C0.536907 2.50087 0.886954 1.68335 1.48596 1.06492C2.08497 0.446489 2.89091 0.0705416 3.74967 0.00896341C4.47059 -0.0427303 5.18627 0.130165 5.8004 0.498565C5.99579 0.615773 6.0279 0.877259 5.88853 1.05751C5.74916 1.23776 5.49119 1.26766 5.29167 1.15764C4.84173 0.909524 4.32698 0.794798 3.80869 0.831962C3.15237 0.879023 2.53643 1.16634 2.07864 1.63898C1.62084 2.11162 1.35332 2.73641 1.32722 3.39389C1.30112 4.05138 1.51827 4.69541 1.93716 5.20285C2.35604 5.71029 2.94727 6.04554 3.59779 6.14448C4.24831 6.24342 4.91247 6.09911 5.46328 5.73916C6.0141 5.3792 6.41291 4.82886 6.58347 4.19334C6.71816 3.69148 6.70303 3.16432 6.54466 2.67552C6.47443 2.45877 6.55267 2.21113 6.75606 2.10844Z" stroke="#C40014" stroke-width="6" mask="url(#path-1-inside-1_112_4275)"/>
<path d="M3.80859 4.19516L2.25 3.2375L3.80859 5.25L7.5 0C6.10547 0.870214 4.76562 2.79516 3.80859 4.19516Z" fill="#172451"/>
</svg>
